<?xml version="1.0" standalone="no"?>
<!DOCTYPE svg PUBLIC "-//W3C//DTD SVG 20010904//EN"
 "http://www.w3.org/TR/2001/REC-SVG-20010904/DTD/svg10.dtd">
<svg version="1.0" xmlns="http://www.w3.org/2000/svg"
 width="300.000000pt" height="300.000000pt" viewBox="0 0 300.000000 300.000000"
 preserveAspectRatio="xMidYMid meet">
<metadata>
Created by potrace 1.11, written by Peter Selinger 2001-2013
</metadata>
<g transform="translate(0.000000,300.000000) scale(0.100000,-0.100000)"
fill="#000000" stroke="none">
<path d="M117 2116 c-45 -16 -81 -53 -102 -104 -14 -31 -15 -106 -13 -532 l3
-496 24 -35 c13 -19 40 -46 60 -60 l36 -24 1375 0 1375 0 42 28 c26 18 50 46
62 73 21 43 21 58 21 530 -1 529 -1 531 -58 581 -62 56 18 53 -1439 53 -1106
-1 -1355 -3 -1386 -14z"/>
</g>
</svg>
